<svg xmlns="http://www.w3.org/2000/svg" xmlns:xlink="http://www.w3.org/1999/xlink" version="1.1" x="0px" y="0px" viewBox="0 0 70 70" style="enable-background:new 0 0 70 70;" xml:space="preserve"><path d="M65.5292969,9.2744141C65.5292969,3.9375,47.2714844,2,35,2S4.4707031,3.9375,4.4707031,9.2744141  c0,2.7089844,4.706665,4.5405273,10.9436035,5.6889648C8.5308838,20.6132812,4.4726562,29.1108398,4.4726562,38.0844727  C4.4726562,54.5800781,17.8925781,68,34.3886719,68s29.9160156-13.4199219,29.9160156-29.9155273  c0-8.8530273-3.9775391-17.2797852-10.7241211-22.9428711C60.3111572,14.0078125,65.5292969,12.1274414,65.5292969,9.2744141z   M27.4013062,29.9238281c0,0.5498047-0.4400024,1-1,1h-6.7700195c-0.5599976,0-1-0.4501953-1-1c0-0.5600586,0.4400024-1,1-1  h6.7700195C26.9613037,28.9238281,27.4013062,29.3637695,27.4013062,29.9238281z M50.0913086,45.7036133  c-1.2199707,3.1699219-5.1899414,10.5400391-15.7000122,10.5400391c-7.25,0-12.9700317-3.8300781-15.7000122-10.5200195  c-0.1599731-0.3896484-0.0599976-0.8300781,0.2399902-1.1098633c0.3099976-0.2797852,0.75-0.3500977,1.1199951-0.1699219  c10.0100098,4.8999023,19.6400146,4.909668,28.6300049,0.0200195c0.3699951-0.2001953,0.8199463-0.1503906,1.1400146,0.1298828  C50.1313477,44.8735352,50.2412109,45.3134766,50.0913086,45.7036133z M41.3712769,29.9238281c0-0.5600586,0.4500122-1,1.000061-1  h6.7800293c0.5499268,0,1,0.4399414,1,1c0,0.5498047-0.4500732,1-1,1h-6.7800293  C41.8212891,30.9238281,41.3712769,30.4736328,41.3712769,29.9238281z M35,14.5488281  c-18.7314453,0-28.5292969-3.4335938-28.5292969-5.2744141S16.2685547,4,35,4s28.5292969,3.4335938,28.5292969,5.2744141  S53.7314453,14.5488281,35,14.5488281z"></path></svg>